<svg width="64" height="64" viewBox="0 0 64 64" xmlns="http://www.w3.org/2000/svg">
  <circle cx="32" cy="32" r="32" fill="#1f3423"/>
  <g fill="#c7af8b">
    <path d="M32 46 Q25 30 32 16 Q39 30 32 46 Z" transform="rotate(-70 32 46)" opacity="0.8"/>
    <path d="M32 46 Q25 30 32 16 Q39 30 32 46 Z" transform="rotate(-35 32 46)" opacity="0.9"/>
    <path d="M32 46 Q25 30 32 16 Q39 30 32 46 Z"/>
    <path d="M32 46 Q25 30 32 16 Q39 30 32 46 Z" transform="rotate(35 32 46)" opacity="0.9"/>
    <path d="M32 46 Q25 30 32 16 Q39 30 32 46 Z" transform="rotate(70 32 46)" opacity="0.8"/>
  </g>
  <circle cx="32" cy="43" r="2.4" fill="#f3ebd9"/>
</svg>
